HIERARCHY
ROOT Hips
{
	OFFSET -0.001795 -0.223333 0.028219
	CHANNELS 6 Xposition Yposition Zposition Zrotation Yrotation Xrotation 
	JOINT LeftUpLeg
	{
		OFFSET 0.069520 -0.091406 -0.006815
		CHANNELS 3 Zrotation Yrotation Xrotation
		JOINT LeftLeg
		{
			OFFSET 0.034277 -0.375199 -0.004496
			CHANNELS 3 Zrotation Yrotation Xrotation
			JOINT LeftFoot
			{
				OFFSET -0.013596 -0.397961 -0.043693
				CHANNELS 3 Zrotation Yrotation Xrotation
				JOINT LeftToe
				{
					OFFSET 0.026358 -0.055791 0.119288
					CHANNELS 3 Zrotation Yrotation Xrotation
					End Site
					{
						OFFSET 0.000000 0.000000 0.000000
					}
				}
			}
		}
	}
	JOINT RightUpLeg
	{
		OFFSET -0.067670 -0.090522 -0.004320
		CHANNELS 3 Zrotation Yrotation Xrotation
		JOINT RightLeg
		{
			OFFSET -0.038290 -0.382569 -0.008850
			CHANNELS 3 Zrotation Yrotation Xrotation
			JOINT RightFoot
			{
				OFFSET 0.015774 -0.398415 -0.042312
				CHANNELS 3 Zrotation Yrotation Xrotation
				JOINT RightToe
				{
					OFFSET -0.025372 -0.048144 0.123348
					CHANNELS 3 Zrotation Yrotation Xrotation
					End Site
					{
						OFFSET 0.000000 0.000000 0.000000
					}
				}
			}
		}
	}
	JOINT Spine
	{
		OFFSET -0.002533 0.108963 -0.026696
		CHANNELS 3 Zrotation Yrotation Xrotation
		JOINT Spine1
		{
			OFFSET 0.005487 0.135180 0.001092
			CHANNELS 3 Zrotation Yrotation Xrotation
			JOINT Spine2
			{
				OFFSET 0.001457 0.052922 0.025425
				CHANNELS 3 Zrotation Yrotation Xrotation
				JOINT Neck
				{
					OFFSET -0.002778 0.213870 -0.042857
					CHANNELS 3 Zrotation Yrotation Xrotation
					JOINT Head
					{
						OFFSET 0.005152 0.064970 0.051349
						CHANNELS 3 Zrotation Yrotation Xrotation
						End Site
						{
							OFFSET 0.000000 0.000000 0.000000
						}
					}
				}
				JOINT LeftShoulder
				{
					OFFSET 0.078845 0.121749 -0.034090
					CHANNELS 3 Zrotation Yrotation Xrotation
					JOINT LeftArm
					{
						OFFSET 0.090977 0.030469 -0.008868
						CHANNELS 3 Zrotation Yrotation Xrotation
						JOINT LeftForeArm
						{
							OFFSET 0.259612 -0.012772 -0.027456
							CHANNELS 3 Zrotation Yrotation Xrotation
							JOINT LeftHand
							{
								OFFSET 0.249234 0.008986 -0.001171
								CHANNELS 3 Zrotation Yrotation Xrotation
								End Site
								{
									OFFSET 0.000000 0.000000 0.000000
								}
							}
						}
					}
				}
				JOINT RightShoulder
				{
					OFFSET -0.081759 0.118833 -0.038615
					CHANNELS 3 Zrotation Yrotation Xrotation
					JOINT RightArm
					{
						OFFSET -0.096012 0.032551 -0.009143
						CHANNELS 3 Zrotation Yrotation Xrotation
						JOINT RightForeArm
						{
							OFFSET -0.253742 -0.013329 -0.021401
							CHANNELS 3 Zrotation Yrotation Xrotation
							JOINT RightHand
							{
								OFFSET -0.255298 0.007772 -0.005559
								CHANNELS 3 Zrotation Yrotation Xrotation
								End Site
								{
									OFFSET 0.000000 0.000000 0.000000
								}
							}
						}
					}
				}
			}
		}
	}
}
MOTION
Frames: 15
Frame Time: 0.050000
0.000000 0.945569 0.000000 -0.439235 -2.199549 -0.430617 3.711060 0.189993 3.494425 -3.514966 0.419887 -4.847817 6.614604 15.148264 12.972640 0.000000 0.000000 0.000000 -5.653166 0.088515 1.367395 2.984212 -0.353957 -4.011192 -5.290921 -15.108104 12.281523 0.000000 0.000000 0.000000 6.927488 0.258542 -2.891192 -5.349552 2.141321 -13.372903 -2.045238 7.548929 22.552850 10.018021 -3.642793 -22.609757 0.000000 0.000000 0.000000 -12.123799 -14.189743 4.753063 -20.377706 5.738518 -3.465787 -92.521331 -15.374331 13.697297 0.000000 0.000000 0.000000 20.123291 0.528683 0.712681 26.703369 0.240433 -3.969994 90.817358 20.527424 22.635085 0.000000 0.000000 0.000000 
0.000282 0.944422 -0.001801 -0.406890 -1.970206 -0.399212 4.106074 0.176236 3.556460 -3.466381 0.416231 -5.219575 6.453246 14.827565 12.014147 0.000000 0.000000 0.000000 -4.994821 0.056613 1.416293 1.969029 -0.271229 -3.191309 -6.106821 -16.483491 11.694165 0.000000 0.000000 0.000000 6.885142 0.388494 -4.175077 -5.632098 2.252058 -13.112138 -2.009530 8.238831 23.485568 11.205318 -4.146869 -23.305057 0.000000 0.000000 0.000000 -11.713314 -14.773114 4.888800 -17.039020 5.398961 -2.782767 -95.416228 -14.140051 12.344161 0.000000 0.000000 0.000000 18.828114 -0.247657 0.494784 26.866685 0.714375 -4.013994 91.066405 20.091579 22.801653 0.000000 0.000000 0.000000 
0.000492 0.944611 -0.003965 -0.023431 -0.183860 0.087508 4.498849 0.069528 2.349646 -4.533436 0.475703 -4.028369 5.581496 13.451663 11.025684 0.000000 0.000000 0.000000 -5.194293 0.035031 1.622822 1.656275 -0.274577 -4.004986 -6.179224 -16.508982 12.114666 0.000000 0.000000 0.000000 6.052138 0.451815 -5.350124 -4.597319 1.916583 -13.761969 -3.055038 7.413300 25.424134 12.302816 -4.463916 -25.357861 0.000000 0.000000 0.000000 -11.295807 -15.238504 5.108649 -16.190668 4.911935 -2.639216 -95.677952 -13.462361 11.324091 0.000000 0.000000 0.000000 19.371517 1.173284 1.446062 24.702555 0.036503 -3.936927 88.849051 20.490405 21.964145 0.000000 0.000000 0.000000 
0.000552 0.945508 -0.006362 0.029304 0.599168 0.249894 4.334912 0.044080 1.970785 -4.595730 0.467374 -4.565108 5.116642 12.951055 12.238914 0.000000 0.000000 0.000000 -5.405301 0.071677 0.905462 1.891074 -0.283864 -3.539378 -6.442995 -16.969135 12.928522 0.000000 0.000000 0.000000 5.903002 0.547471 -6.557722 -4.546188 1.927910 -13.235406 -3.427074 6.633756 26.597369 12.853386 -4.859737 -25.574639 0.000000 0.000000 0.000000 -11.799199 -15.773749 5.439232 -13.427219 4.656819 -2.143451 -96.356235 -12.721083 10.489997 0.000000 0.000000 0.000000 19.268019 1.449047 1.565353 23.094481 0.040228 -3.736584 90.641199 18.516634 20.162588 0.000000 0.000000 0.000000 
0.000349 0.946211 -0.008796 0.105277 0.320895 -0.214726 3.932516 0.053326 1.784492 -3.767501 0.413929 -3.647198 4.611965 12.051712 11.708725 0.000000 0.000000 0.000000 -5.745928 0.094149 0.614256 2.058886 -0.278804 -2.745136 -6.059426 -16.321805 12.964498 0.000000 0.000000 0.000000 5.700466 0.514068 -6.170343 -4.129786 1.784471 -12.951525 -4.012856 6.793585 26.703755 12.973705 -5.260215 -24.085211 0.000000 0.000000 0.000000 -11.301981 -16.027119 5.546671 -12.828852 4.259754 -2.013146 -95.877638 -11.839332 9.256825 0.000000 0.000000 0.000000 19.353610 1.912941 1.813372 21.240311 0.179793 -3.420065 90.613447 17.753391 18.919975 0.000000 0.000000 0.000000 
-0.000031 0.947537 -0.010934 0.123047 0.120732 -0.361764 3.835029 0.054529 1.700597 -3.726047 0.412841 -3.695865 4.998065 12.735265 12.275007 0.000000 0.000000 0.000000 -5.849079 0.106093 0.450556 2.133287 -0.282885 -2.690825 -6.014559 -16.282749 13.248755 0.000000 0.000000 0.000000 5.848965 0.548248 -6.418767 -4.675477 1.969852 -12.931027 -3.595026 6.995901 27.701590 12.500376 -5.063220 -23.762494 0.000000 0.000000 0.000000 -11.345891 -16.729682 5.878729 -11.890231 3.988916 -1.848885 -96.177275 -10.692176 7.798087 0.000000 0.000000 0.000000 19.445369 1.900400 1.861809 20.545098 0.027603 -3.384303 91.409066 16.444345 17.636467 0.000000 0.000000 0.000000 
-0.000439 0.947925 -0.012798 0.038531 -0.121989 -0.882918 3.937344 0.075839 1.996141 -3.439160 0.393141 -3.616862 4.789952 12.413731 12.408928 0.000000 0.000000 0.000000 -5.756223 0.104674 0.357839 2.458076 -0.287790 -1.494461 -6.054984 -16.354534 12.928863 0.000000 0.000000 0.000000 5.877625 0.534228 -6.119904 -4.585022 1.950787 -12.177894 -3.762521 6.694570 27.731431 12.224562 -5.163684 -22.844336 0.000000 0.000000 0.000000 -10.840380 -16.355813 5.783140 -11.364901 4.383720 -1.793457 -97.136123 -9.373994 6.389545 0.000000 0.000000 0.000000 19.065149 2.246709 1.921037 19.895353 -0.468881 -3.300487 92.508122 15.398815 16.498463 0.000000 0.000000 0.000000 
-0.000755 0.948946 -0.014183 -0.071316 -0.399567 -1.480827 4.013168 0.106817 2.430257 -3.260348 0.380632 -3.394408 4.778981 12.359331 12.298265 0.000000 0.000000 0.000000 -5.686693 0.089158 0.551851 2.644779 -0.293346 -0.825084 -5.925975 -16.151327 12.890214 0.000000 0.000000 0.000000 5.967893 0.542669 -6.011378 -4.618135 1.978117 -11.319870 -3.571450 6.564057 27.998573 11.787005 -5.122864 -21.981361 0.000000 0.000000 0.000000 -10.649607 -16.864758 6.057819 -11.170256 4.903789 -1.796929 -97.912500 -9.632618 6.871053 0.000000 0.000000 0.000000 18.633144 2.283139 1.856071 19.750941 -0.325358 -3.256720 93.395777 14.827464 16.010306 0.000000 0.000000 0.000000 
-0.000916 0.949191 -0.015148 -0.135297 -0.546590 -1.790251 3.887175 0.135636 2.790843 -2.781545 0.341804 -3.281932 4.688110 12.186532 12.175511 0.000000 0.000000 0.000000 -5.622634 0.089976 0.465629 2.720730 -0.289834 -0.166825 -5.882317 -16.069807 12.701044 0.000000 0.000000 0.000000 6.055049 0.536021 -5.819652 -4.483212 1.935802 -10.910843 -3.610118 6.546311 28.230148 11.670302 -5.239585 -21.211141 0.000000 0.000000 0.000000 -10.421397 -17.008572 6.137155 -11.089114 5.860420 -1.835881 -98.802884 -10.133890 7.617163 0.000000 0.000000 0.000000 18.378511 2.178089 1.766081 19.503273 -0.477701 -3.234074 94.487075 14.295124 15.626838 0.000000 0.000000 0.000000 
-0.001052 0.949579 -0.015881 -0.221038 -0.946270 -2.197910 3.843002 0.165077 3.131482 -2.710950 0.336962 -3.113304 4.904660 12.479055 12.056682 0.000000 0.000000 0.000000 -5.408923 0.083027 0.506335 2.731981 -0.277186 0.575970 -5.730098 -15.805950 12.392274 0.000000 0.000000 0.000000 6.359587 0.563722 -5.829139 -4.644774 2.000948 -10.357749 -3.417517 6.467465 28.587721 11.066021 -5.034437 -20.545947 0.000000 0.000000 0.000000 -10.235806 -16.574867 6.004282 -11.712616 5.918556 -1.983114 -98.708880 -10.782219 8.553003 0.000000 0.000000 0.000000 17.900942 2.066163 1.615315 19.813463 -0.757019 -3.305145 94.746920 14.047373 15.349192 0.000000 0.000000 0.000000 
-0.001303 0.949177 -0.016583 -0.254380 -1.047778 -2.282902 3.914999 0.171817 3.253871 -2.670158 0.333850 -3.089012 4.995732 12.611786 12.032696 0.000000 0.000000 0.000000 -5.449326 0.075505 0.680197 2.844315 -0.290205 0.488655 -5.635175 -15.654914 12.476896 0.000000 0.000000 0.000000 6.430930 0.549305 -5.620230 -4.546536 1.957832 -10.567337 -3.456665 6.308545 28.988589 10.907463 -4.956727 -20.658617 0.000000 0.000000 0.000000 -10.676572 -16.321427 5.961464 -12.511473 6.153814 -2.174519 -97.842788 -11.819993 9.858799 0.000000 0.000000 0.000000 18.004213 1.997662 1.544094 20.205471 -0.723452 -3.377462 94.468530 14.429690 15.694099 0.000000 0.000000 0.000000 
-0.001688 0.948812 -0.017213 -0.270614 -1.502044 -2.448163 4.124922 0.180756 3.401960 -2.661772 0.333400 -2.875606 5.180885 12.868897 12.043937 0.000000 0.000000 0.000000 -5.192720 0.071185 0.710005 2.952234 -0.295685 0.714194 -5.748838 -15.877576 12.289677 0.000000 0.000000 0.000000 6.496777 0.542104 -5.443295 -4.559823 1.963210 -10.116702 -3.371065 6.042899 28.939909 10.993860 -5.023435 -21.031842 0.000000 0.000000 0.000000 -10.992841 -15.588333 5.747955 -14.097970 6.277197 -2.532227 -96.545708 -13.358839 11.860147 0.000000 0.000000 0.000000 18.180179 1.829499 1.320902 21.070877 -0.159863 -3.423812 93.295331 15.056846 16.010538 0.000000 0.000000 0.000000 
-0.002065 0.948462 -0.017640 -0.339246 -1.767082 -2.480175 4.272640 0.188699 3.559781 -2.787242 0.347020 -2.951731 5.282276 12.991562 11.903833 0.000000 0.000000 0.000000 -5.094255 0.065086 0.830058 2.971721 -0.297268 0.622915 -5.627067 -15.682975 12.287434 0.000000 0.000000 0.000000 6.602217 0.548307 -5.425072 -4.455177 1.924819 -9.778303 -3.445034 5.903717 28.649250 11.072045 -5.125991 -20.946880 0.000000 0.000000 0.000000 -11.623903 -15.076471 5.589401 -15.673682 5.825035 -2.827320 -95.459959 -15.069461 13.970958 0.000000 0.000000 0.000000 18.497420 1.787107 1.224112 22.508072 -0.472494 -3.662203 91.030349 15.883830 16.371263 0.000000 0.000000 0.000000 
-0.002280 0.948101 -0.017822 -0.387884 -2.031068 -2.543381 4.319792 0.190490 3.547038 -2.971142 0.362318 -2.632533 5.319460 13.009784 11.758272 0.000000 0.000000 0.000000 -4.886178 0.068209 0.707670 2.744272 -0.265609 0.961733 -5.584838 -15.629594 12.263564 0.000000 0.000000 0.000000 6.712333 0.546032 -5.313180 -4.505763 1.943710 -9.524846 -3.525329 5.921378 28.586696 11.416424 -5.212782 -21.686194 0.000000 0.000000 0.000000 -12.269830 -14.235172 5.253132 -17.378179 5.347501 -3.137411 -94.370379 -17.236335 16.470934 0.000000 0.000000 0.000000 18.945539 1.382935 0.970128 23.627389 -0.309903 -3.810616 88.595518 16.372847 16.308852 0.000000 0.000000 0.000000 
-0.002369 0.948057 -0.017748 -0.331315 -2.031592 -2.561564 4.211178 0.190088 3.474191 -3.016679 0.365118 -2.442460 5.371633 13.072455 11.604345 0.000000 0.000000 0.000000 -4.833685 0.046271 1.071669 2.531263 -0.249345 0.565995 -5.371663 -15.223468 12.055805 0.000000 0.000000 0.000000 6.822361 0.533317 -5.135788 -4.612158 1.983003 -9.611080 -3.529077 6.015303 28.475757 11.420259 -5.145014 -21.907365 0.000000 0.000000 0.000000 -13.104245 -13.846868 5.073460 -18.958380 4.960474 -3.407000 -93.237790 -19.417930 18.795913 0.000000 0.000000 0.000000 19.425923 1.047507 0.813702 24.937396 -0.773117 -4.095717 85.748870 17.037889 16.382310 0.000000 0.000000 0.000000 
